<svg width="24" height="24" viewBox="0 0 24 24" fill="none" xmlns="http://www.w3.org/2000/svg">
<path d="M18.729 9.216C18.456 5.74275 15.5422 3 12 3C8.97 3 6.369 4.968 5.52975 7.83825C3.13575 8.66925 1.5 10.9373 1.5 13.5C1.5 16.8082 4.19175 19.5 7.5 19.5H17.25C20.145 19.5 22.5 17.145 22.5 14.25C22.5 11.8883 20.9475 9.861 18.729 9.216ZM15.5303 13.2803L12.5303 16.2803C12.384 16.4265 12.192 16.5 12 16.5C11.808 16.5 11.616 16.4265 11.4698 16.2803L8.46975 13.2803C8.25525 13.0658 8.19075 12.7433 8.307 12.4628C8.42325 12.183 8.697 12 9 12H10.5V9C10.5 8.172 11.172 7.5 12 7.5C12.828 7.5 13.5 8.172 13.5 9V12H15C15.303 12 15.5767 12.183 15.693 12.4628C15.8092 12.7433 15.7448 13.0658 15.5303 13.2803Z" fill="white"/>
</svg>
