<svg width="24" height="24" viewBox="0 0 24 24" fill="none" xmlns="http://www.w3.org/2000/svg">
<path d="M2.8356 11.6309L7.21358 13.4089L8.90813 19.3386C9.01656 19.7184 9.44336 19.8588 9.72665 19.6068L12.167 17.4421C12.4228 17.2153 12.7872 17.204 13.0545 17.4151L17.4561 20.8923C17.7591 21.1319 18.1884 20.9512 18.2644 20.5528L21.4888 3.67669C21.5718 3.24143 21.1787 2.87833 20.7978 3.03862L2.83047 10.5805C2.38707 10.7666 2.39093 11.4496 2.8356 11.6309ZM8.63504 12.4624L17.1913 6.72842C17.345 6.62567 17.5032 6.85191 17.3712 6.98519L10.3098 14.1273C10.0616 14.3787 9.90152 14.7151 9.85617 15.0803L9.61563 17.0199C9.58377 17.2789 9.24943 17.3046 9.18376 17.054L8.25865 13.517C8.15269 13.1136 8.3071 12.6827 8.63504 12.4624Z" fill="white"/>
</svg>
